<?xml version="1.0" encoding="UTF-8" standalone="no"?>
<!-- Generator: Adobe Illustrator 22.0.1, SVG Export Plug-In . SVG Version: 6.00 Build 0)  -->

<svg
   version="1.1"
   id="Layer_1"
   x="0px"
   y="0px"
   viewBox="0 0 139.81752 166.3"
   xml:space="preserve"
   sodipodi:docname="ada.svg"
   width="139.81752"
   height="166.3"
   inkscape:version="1.2.2 (1:1.2.2+202212051552+b0a8486541)"
   xmlns:inkscape="http://www.inkscape.org/namespaces/inkscape"
   xmlns:sodipodi="http://sodipodi.sourceforge.net/DTD/sodipodi-0.dtd"
   xmlns="http://www.w3.org/2000/svg"
   xmlns:svg="http://www.w3.org/2000/svg"><defs
   id="defs9" /><sodipodi:namedview
   id="namedview7"
   pagecolor="#ffffff"
   bordercolor="#666666"
   borderopacity="1.0"
   inkscape:showpageshadow="2"
   inkscape:pageopacity="0.0"
   inkscape:pagecheckerboard="0"
   inkscape:deskcolor="#d1d1d1"
   showgrid="false"
   inkscape:zoom="6.5842105"
   inkscape:cx="56.195044"
   inkscape:cy="85.431655"
   inkscape:window-width="3766"
   inkscape:window-height="2089"
   inkscape:window-x="2634"
   inkscape:window-y="34"
   inkscape:window-maximized="1"
   inkscape:current-layer="g4" />
<g
   id="g4"
   transform="translate(-27.491107,-9.6)">
	<path
   d="m 167.3,109.9 c -0.2,-3.8 -3.6,-6.7 -7.5,-6.7 h -21.2 v 0 l -5.8,-14.7 v 0 h 13.1 c 3.8,0 7.3,-2.8 7.5,-6.7 0.2,-4 -3,-7.3 -6.9,-7.3 h -19.2 v 0 L 103.3,14 c -1,-2.6 -3.6,-4.4 -6.5,-4.4 -2.8,0 -5.4,1.8 -6.5,4.4 l -23,60.4 v 0 H 48.5 c -3.8,0 -7.3,2.8 -7.5,6.7 -0.2,4 3,7.3 6.9,7.3 h 13.7 v 0 L 56,103 v 0 H 35 c -3.8,0 -7.3,2.8 -7.5,6.7 -0.2,4 3,7.3 6.9,7.3 h 16.1 v 0 l -18.8,48.8 c -1.4,3.6 0.4,7.7 4,9.1 0.8,0.4 1.6,0.4 2.4,0.4 2.8,0 5.4,-1.6 6.5,-4.4 l 20.8,-53.8 v 0 h 63.3 v 0 l 21.6,54.4 c 1,2.8 3.6,4.4 6.5,4.4 0.8,0 1.8,-0.2 2.6,-0.4 3.6,-1.4 5.2,-5.4 3.8,-9.1 l -19.6,-49.2 v 0 h 15.9 c 4.7,-0.1 8,-3.3 7.8,-7.3 z M 97.1,36.1 112.2,74.4 v 0 H 82.4 v 0 L 97.1,36.1 c -0.2,0 0,0 0,0 z m -26,67.1 5.6,-14.7 v 0 h 40.7 v 0 l 5.8,14.7 v 0 z"
   id="path2"
   style="fill:#ffffff;fill-opacity:1" />
</g>
</svg>
